<?xml version="1.0" encoding="UTF-8"?>
<svg xmlns="http://www.w3.org/2000/svg" xmlns:xlink="http://www.w3.org/1999/xlink" width="24px" height="24px" viewBox="0 0 24 24" version="1.1">
<g id="surface1">
<path style=" stroke:none;fill-rule:nonzero;fill:rgb(13.725491%,58.823532%,92.941177%);fill-opacity:1;" d="M 18.511719 6.804688 L 18.738281 6.464844 L 19.132812 6.703125 L 19.304688 6.828125 C 19.726562 7.152344 20.609375 7.976562 20.800781 9.351562 C 21.132812 9.292969 21.46875 9.261719 21.808594 9.261719 C 22.609375 9.261719 23.148438 9.449219 23.453125 9.601562 L 23.613281 9.6875 L 23.714844 9.757812 L 24 9.988281 L 23.902344 10.289062 C 23.746094 10.703125 23.507812 11.074219 23.195312 11.386719 C 22.761719 11.832031 21.996094 12.363281 20.78125 12.433594 L 20.515625 12.441406 L 20.292969 12.441406 C 19.738281 13.90625 18.992188 15.554688 17.742188 17.039062 C 16.996094 17.917969 16.117188 18.671875 15.128906 19.269531 C 13.949219 19.96875 12.65625 20.460938 11.308594 20.722656 C 10.339844 20.910156 9.359375 21.003906 8.378906 21 C 6.203125 21 4.28125 20.566406 3.101562 19.8125 C 2.046875 19.136719 1.238281 18.039062 0.691406 16.546875 C 0.21875 15.183594 -0.015625 13.746094 0 12.300781 C -0.00390625 11.917969 0.273438 11.589844 0.648438 11.527344 L 0.75 11.519531 L 16.5625 11.519531 L 16.699219 11.507812 L 16.921875 11.484375 C 17.308594 11.433594 17.890625 11.320312 18.304688 11.082031 C 17.8125 10.265625 17.671875 9.3125 17.902344 8.300781 C 17.996094 7.875 18.148438 7.46875 18.351562 7.085938 Z M 4.335938 8.675781 L 4.394531 8.6875 L 4.519531 8.871094 L 4.519531 10.84375 L 4.511719 10.902344 L 4.335938 11.035156 L 2.21875 11.035156 L 2.03125 10.84375 L 2.03125 8.867188 L 2.042969 8.808594 L 2.21875 8.675781 Z M 7.253906 8.675781 L 7.3125 8.6875 L 7.441406 8.871094 L 7.441406 10.84375 L 7.429688 10.902344 L 7.253906 11.035156 L 5.136719 11.035156 L 4.949219 10.84375 L 4.949219 8.871094 L 5.136719 8.675781 Z M 10.21875 8.675781 L 10.277344 8.6875 L 10.402344 8.871094 L 10.402344 10.84375 L 10.394531 10.902344 L 10.21875 11.035156 L 8.101562 11.035156 L 7.914062 10.84375 L 7.914062 8.867188 L 7.925781 8.808594 L 8.101562 8.675781 Z M 13.148438 8.675781 L 13.207031 8.6875 L 13.332031 8.871094 L 13.332031 10.84375 L 13.144531 11.035156 L 11.03125 11.035156 L 10.84375 10.84375 L 10.84375 8.867188 L 10.855469 8.808594 L 11.03125 8.675781 Z M 16.101562 8.675781 L 16.160156 8.6875 L 16.285156 8.871094 L 16.285156 10.84375 L 16.101562 11.035156 L 13.984375 11.035156 L 13.796875 10.84375 L 13.796875 8.867188 L 13.808594 8.808594 L 13.984375 8.675781 Z M 7.253906 5.839844 L 7.3125 5.847656 L 7.4375 6.03125 L 7.4375 8.003906 L 7.253906 8.199219 L 5.136719 8.199219 L 4.949219 8.003906 L 4.949219 6.03125 L 5.136719 5.839844 Z M 10.214844 5.839844 L 10.277344 5.847656 L 10.402344 6.03125 L 10.402344 8.003906 L 10.214844 8.199219 L 8.101562 8.199219 L 7.914062 8.003906 L 7.914062 6.03125 L 7.925781 5.972656 L 8.101562 5.839844 L 10.21875 5.839844 Z M 13.144531 5.839844 C 13.226562 5.839844 13.296875 5.894531 13.320312 5.96875 L 13.332031 6.03125 L 13.332031 8.003906 L 13.144531 8.199219 L 11.03125 8.199219 L 10.84375 8.003906 L 10.84375 6.03125 L 10.855469 5.972656 L 11.03125 5.839844 L 13.148438 5.839844 Z M 13.144531 3 C 13.226562 3 13.296875 3.054688 13.320312 3.132812 L 13.332031 3.191406 L 13.332031 5.164062 L 13.144531 5.359375 L 11.03125 5.359375 L 10.84375 5.167969 L 10.84375 3.191406 L 10.855469 3.132812 L 11.03125 3 L 13.148438 3 Z M 13.144531 3 "/>
</g>
</svg>
