<?xml version="1.0" encoding="UTF-8"?>
<svg xmlns="http://www.w3.org/2000/svg" xmlns:xlink="http://www.w3.org/1999/xlink" width="24px" height="24px" viewBox="0 0 24 24" version="1.1">
<g id="surface1">
<path style=" stroke:currentColor;fill-rule:nonzero;fill:rgb(0%,0%,0%);fill-opacity:1;" d="M 9.875 23.175781 C 13.925781 23.433594 20.148438 23.03125 20.292969 21.117188 C 20.292969 21.117188 20.011719 21.839844 16.945312 22.417969 C 15.253906 22.722656 13.304688 22.898438 11.316406 22.898438 C 9.683594 22.898438 8.082031 22.78125 6.515625 22.554688 L 6.695312 22.578125 C 6.695312 22.574219 7.214844 23.003906 9.875 23.175781 M 14.25 0.753906 C 14.25 0.753906 16.585938 3.089844 12.035156 6.683594 C 8.382812 9.570312 11.203125 11.214844 12.03125 13.09375 C 9.902344 11.167969 8.335938 9.476562 9.386719 7.902344 C 10.925781 5.585938 15.195312 4.464844 14.25 0.753906 Z M 16.792969 17.234375 C 21.015625 15.039062 19.0625 12.933594 17.703125 13.21875 C 17.53125 13.25 17.359375 13.292969 17.195312 13.355469 L 17.21875 13.347656 C 17.308594 13.222656 17.429688 13.125 17.574219 13.070312 L 17.578125 13.070312 C 20.273438 12.121094 22.347656 15.863281 16.710938 17.34375 Z M 9.460938 13.132812 C 9.460938 13.132812 5.375 14.105469 8.015625 14.457031 C 9.859375 14.597656 11.714844 14.574219 13.554688 14.386719 L 13.421875 14.398438 C 15.117188 14.257812 16.8125 13.953125 16.8125 13.953125 C 16.445312 14.109375 16.09375 14.300781 15.757812 14.519531 L 15.785156 14.503906 C 11.632812 15.59375 3.613281 15.085938 5.921875 13.96875 C 7.007812 13.417969 8.207031 13.128906 9.421875 13.132812 L 9.464844 13.132812 Z M 18.871094 19.96875 C 18.871094 19.96875 19.507812 20.496094 18.171875 20.898438 C 15.628906 21.667969 7.589844 21.902344 5.359375 20.929688 C 4.558594 20.578125 6.0625 20.09375 6.535156 19.996094 C 6.789062 19.929688 7.050781 19.902344 7.3125 19.90625 C 6.417969 19.277344 1.542969 21.140625 4.832031 21.675781 C 13.8125 23.132812 21.199219 21.019531 18.871094 19.96875 Z M 13.046875 11.507812 C 13.335938 11.855469 13.46875 12.304688 13.414062 12.753906 C 13.359375 13.203125 13.125 13.609375 12.765625 13.878906 L 12.761719 13.882812 C 12.761719 13.882812 15.515625 12.460938 14.25 10.679688 C 13.066406 9.019531 12.160156 8.191406 17.070312 5.347656 C 17.070312 5.347656 9.367188 7.269531 13.046875 11.507812 M 8.507812 15.6875 C 8.507812 15.6875 7.546875 16.398438 9.015625 16.550781 C 9.660156 16.632812 10.40625 16.679688 11.164062 16.679688 C 12.53125 16.679688 13.867188 16.527344 15.148438 16.242188 L 15.027344 16.261719 C 15.285156 16.503906 15.59375 16.695312 15.933594 16.820312 L 15.953125 16.828125 C 10.628906 18.382812 4.699219 16.949219 8.507812 15.683594 Z M 9.046875 18.148438 C 9.046875 18.148438 8.1875 18.648438 9.660156 18.816406 C 10.199219 18.898438 10.820312 18.945312 11.453125 18.945312 C 12.46875 18.945312 13.457031 18.824219 14.40625 18.601562 L 14.316406 18.621094 C 14.667969 18.832031 15.074219 19.039062 15.5 19.207031 L 15.554688 19.226562 C 11.152344 21.113281 5.589844 19.117188 9.050781 18.148438 Z M 9.046875 18.148438 "/>
</g>
</svg>
