<svg xmlns="http://www.w3.org/2000/svg" xmlns:xlink="http://www.w3.org/1999/xlink" width="24" height="24" version="1.1" viewBox="0 0 24 24"><g id="surface1"><path style="stroke:none;fill-rule:nonzero;fill:#326de6;fill-opacity:1" d="M 6.75 21.851562 C 7.070312 22.269531 7.558594 22.5 8.0625 22.5 L 15.9375 22.5 C 16.441406 22.5 16.925781 22.253906 17.25 21.847656 L 22.136719 15.582031 C 22.457031 15.164062 22.570312 14.632812 22.457031 14.113281 L 20.710938 6.304688 C 20.601562 5.796875 20.265625 5.367188 19.800781 5.140625 L 12.730469 1.675781 C 12.503906 1.558594 12.257812 1.5 12.003906 1.5 C 11.75 1.5 11.5 1.558594 11.277344 1.671875 L 4.203125 5.152344 C 3.738281 5.382812 3.402344 5.8125 3.296875 6.316406 L 1.546875 14.128906 C 1.421875 14.648438 1.546875 15.179688 1.867188 15.597656 Z M 6.75 21.851562"/><path style="stroke:none;fill-rule:evenodd;fill:#fff;fill-opacity:1" d="M 19.113281 13.691406 C 19.257812 13.695312 19.40625 13.707031 19.550781 13.726562 L 19.636719 13.746094 L 19.683594 13.757812 C 19.8125 13.777344 19.925781 13.847656 20 13.953125 C 20.074219 14.058594 20.101562 14.191406 20.074219 14.316406 C 20.046875 14.441406 19.964844 14.550781 19.851562 14.617188 C 19.738281 14.679688 19.605469 14.691406 19.480469 14.652344 L 19.472656 14.652344 L 19.464844 14.644531 L 19.421875 14.636719 L 19.34375 14.621094 C 19.207031 14.574219 19.070312 14.523438 18.933594 14.464844 C 18.675781 14.359375 18.410156 14.28125 18.136719 14.226562 L 17.683594 14.289062 C 17.238281 15.683594 16.296875 16.863281 15.035156 17.605469 C 15.058594 17.671875 15.082031 17.730469 15.113281 17.792969 C 15.191406 18.316406 15.328125 18.558594 15.484375 18.789062 C 15.574219 18.90625 15.65625 19.027344 15.730469 19.152344 L 15.773438 19.238281 L 15.789062 19.277344 C 15.894531 19.445312 15.875 19.664062 15.746094 19.8125 C 15.613281 19.964844 15.402344 20.015625 15.21875 19.9375 L 14.945312 19.636719 L 14.902344 19.550781 C 14.851562 19.410156 14.808594 19.273438 14.769531 19.128906 C 14.6875 18.863281 14.582031 18.605469 14.457031 18.363281 L 14.175781 18.140625 L 14.125 18.042969 C 12.757812 18.558594 11.253906 18.554688 9.890625 18.03125 L 9.785156 18.21875 C 9.429688 18.570312 9.308594 18.847656 9.230469 19.136719 C 9.195312 19.28125 9.148438 19.421875 9.097656 19.558594 L 9.0625 19.632812 L 9.042969 19.675781 C 9 19.796875 8.90625 19.898438 8.785156 19.945312 C 8.664062 19.996094 8.527344 19.992188 8.410156 19.933594 L 8.234375 19.238281 L 8.273438 19.160156 C 8.347656 19.035156 8.429688 18.910156 8.519531 18.796875 C 8.679688 18.5625 8.820312 18.3125 8.933594 18.050781 L 8.976562 17.59375 C 7.722656 16.855469 6.78125 15.683594 6.328125 14.296875 L 6.128906 14.332031 C 5.59375 14.292969 5.324219 14.371094 5.066406 14.472656 C 4.929688 14.535156 4.792969 14.585938 4.65625 14.632812 L 4.578125 14.648438 L 4.535156 14.65625 L 4.53125 14.65625 L 4.527344 14.660156 L 4.519531 14.660156 C 4.363281 14.710938 4.195312 14.675781 4.074219 14.566406 C 3.953125 14.460938 3.894531 14.296875 3.925781 14.136719 L 4.324219 13.769531 L 4.335938 13.765625 C 4.371094 13.757812 4.414062 13.746094 4.449219 13.738281 C 4.59375 13.71875 4.742188 13.707031 4.886719 13.703125 C 5.167969 13.683594 5.441406 13.640625 5.710938 13.570312 L 6.101562 13.3125 C 5.894531 11.871094 6.226562 10.398438 7.039062 9.1875 L 6.890625 9.054688 C 6.585938 8.609375 6.355469 8.449219 6.117188 8.3125 C 5.984375 8.246094 5.859375 8.171875 5.734375 8.089844 L 5.664062 8.035156 L 5.640625 8.015625 L 5.632812 8.011719 C 5.417969 7.855469 5.367188 7.554688 5.519531 7.335938 L 6.238281 7.320312 C 6.265625 7.339844 6.289062 7.359375 6.308594 7.375 C 6.414062 7.476562 6.515625 7.582031 6.609375 7.695312 C 6.796875 7.902344 7.003906 8.085938 7.226562 8.253906 L 7.667969 8.398438 C 8.671875 7.332031 10.035156 6.679688 11.496094 6.5625 L 11.507812 6.367188 C 11.664062 5.851562 11.648438 5.574219 11.605469 5.300781 C 11.574219 5.15625 11.554688 5.011719 11.539062 4.867188 L 11.539062 4.734375 C 11.527344 4.605469 11.570312 4.476562 11.65625 4.378906 C 11.746094 4.285156 11.871094 4.230469 12 4.230469 C 12.128906 4.230469 12.253906 4.285156 12.339844 4.382812 C 12.425781 4.476562 12.46875 4.605469 12.460938 4.734375 L 12.460938 4.867188 C 12.445312 5.011719 12.425781 5.15625 12.398438 5.300781 C 12.355469 5.574219 12.335938 5.851562 12.34375 6.128906 L 12.496094 6.371094 L 12.503906 6.5625 C 13.957031 6.695312 15.308594 7.347656 16.316406 8.398438 L 16.488281 8.277344 C 16.992188 8.078125 17.199219 7.894531 17.386719 7.6875 C 17.480469 7.574219 17.582031 7.46875 17.691406 7.367188 L 17.765625 7.304688 L 17.792969 7.285156 C 17.917969 7.160156 18.101562 7.121094 18.269531 7.179688 C 18.433594 7.238281 18.554688 7.382812 18.574219 7.558594 C 18.59375 7.734375 18.511719 7.90625 18.363281 8 L 18.328125 8.03125 C 18.304688 8.050781 18.28125 8.066406 18.261719 8.082031 C 18.140625 8.164062 18.011719 8.234375 17.882812 8.304688 C 17.640625 8.441406 17.410156 8.601562 17.199219 8.785156 L 17.035156 9.109375 L 16.949219 9.1875 C 17.765625 10.394531 18.105469 11.863281 17.90625 13.304688 L 18.089844 13.359375 C 18.558594 13.628906 18.832031 13.675781 19.113281 13.691406 M 10.9375 7.859375 C 11.097656 7.824219 11.257812 7.796875 11.425781 7.777344 L 11.289062 10.175781 L 11.277344 10.183594 L 10.632812 10.492188 L 8.660156 9.097656 C 9.289062 8.484375 10.078125 8.054688 10.9375 7.859375 M 13.363281 10.484375 L 15.324219 9.097656 C 14.578125 8.371094 13.613281 7.90625 12.574219 7.777344 L 12.710938 10.171875 L 12.714844 10.171875 Z M 16.734375 12.96875 L 14.414062 12.300781 L 14.410156 12.289062 L 14.25 11.59375 L 16.042969 9.996094 C 16.589844 10.886719 16.832031 11.929688 16.734375 12.96875 Z M 13.644531 14.25 L 14.570312 16.484375 C 15.457031 15.921875 16.128906 15.078125 16.484375 14.089844 L 14.09375 13.683594 L 14.089844 13.6875 Z M 13.066406 17.109375 C 12.207031 17.300781 11.3125 17.257812 10.476562 16.976562 L 11.640625 14.875 L 11.644531 14.875 C 11.714844 14.746094 11.851562 14.664062 12 14.664062 C 12.148438 14.660156 12.285156 14.742188 12.355469 14.875 L 12.363281 14.875 L 13.53125 16.976562 C 13.378906 17.027344 13.222656 17.074219 13.066406 17.109375 M 9.441406 16.472656 L 10.355469 14.261719 L 10.351562 14.253906 C 10.410156 14.117188 10.386719 13.957031 10.292969 13.84375 C 10.203125 13.726562 10.050781 13.671875 9.90625 13.699219 L 9.898438 13.695312 L 7.53125 14.09375 C 7.886719 15.078125 8.558594 15.914062 9.441406 16.472656 M 7.945312 9.996094 L 9.746094 11.601562 L 9.742188 11.613281 C 9.855469 11.710938 9.90625 11.859375 9.871094 12.003906 C 9.839844 12.152344 9.726562 12.265625 9.585938 12.304688 L 9.582031 12.3125 L 7.273438 12.976562 C 7.15625 11.933594 7.394531 10.886719 7.945312 9.996094 M 12.367188 11.726562 L 11.632812 11.726562 L 11.171875 12.296875 L 11.335938 13.007812 L 12 13.328125 L 12.664062 13.011719 L 12.828125 12.296875 Z M 12.367188 11.726562"/></g></svg>