<?xml version="1.0" encoding="UTF-8"?>
<svg xmlns="http://www.w3.org/2000/svg" xmlns:xlink="http://www.w3.org/1999/xlink" width="20px" height="20px" viewBox="0 0 20 20" version="1.1">
<g id="surface1">
<path style=" stroke:none;fill-rule:nonzero;fill:rgb(0%,0%,0%);fill-opacity:1;" d="M 19.621094 11.976562 C 19.503906 11.625 19.199219 11.378906 18.808594 11.320312 C 18.621094 11.292969 18.410156 11.304688 18.15625 11.355469 C 17.71875 11.445312 17.390625 11.480469 17.15625 11.488281 C 18.050781 9.972656 18.78125 8.246094 19.199219 6.621094 C 19.878906 3.992188 19.515625 2.796875 19.09375 2.253906 C 17.972656 0.820312 16.335938 0.0507812 14.359375 0.0273438 C 13.308594 0.015625 12.382812 0.222656 11.898438 0.371094 C 11.449219 0.292969 10.96875 0.25 10.460938 0.242188 C 9.511719 0.226562 8.671875 0.433594 7.957031 0.859375 C 7.558594 0.722656 6.921875 0.535156 6.183594 0.414062 C 4.453125 0.128906 3.058594 0.351562 2.039062 1.074219 C 0.804688 1.945312 0.230469 3.460938 0.339844 5.578125 C 0.371094 6.25 0.746094 8.296875 1.339844 10.234375 C 1.679688 11.351562 2.042969 12.277344 2.417969 12.988281 C 2.949219 13.996094 3.519531 14.589844 4.160156 14.804688 C 4.519531 14.921875 5.167969 15.007812 5.855469 14.4375 C 5.941406 14.542969 6.058594 14.644531 6.210938 14.742188 C 6.40625 14.867188 6.644531 14.96875 6.882812 15.027344 C 7.742188 15.242188 8.546875 15.1875 9.234375 14.886719 C 9.238281 15.007812 9.242188 15.125 9.242188 15.226562 C 9.25 15.390625 9.253906 15.550781 9.257812 15.699219 C 9.300781 16.714844 9.367188 17.5 9.574219 18.050781 C 9.582031 18.082031 9.597656 18.128906 9.613281 18.175781 C 9.71875 18.488281 9.886719 19.011719 10.320312 19.421875 C 10.769531 19.84375 11.3125 19.972656 11.808594 19.972656 C 12.058594 19.972656 12.296875 19.941406 12.503906 19.898438 C 13.25 19.738281 14.09375 19.496094 14.707031 18.625 C 15.285156 17.800781 15.566406 16.5625 15.617188 14.609375 C 15.621094 14.554688 15.628906 14.503906 15.632812 14.453125 L 15.644531 14.347656 L 15.78125 14.359375 L 15.816406 14.363281 C 16.574219 14.398438 17.5 14.238281 18.070312 13.972656 C 18.519531 13.765625 19.960938 13.003906 19.621094 11.976562 "/>
<path style=" stroke:none;fill-rule:nonzero;fill:rgb(20%,40.392157%,56.862748%);fill-opacity:1;" d="M 18.328125 12.175781 C 16.074219 12.640625 15.917969 11.878906 15.917969 11.878906 C 18.296875 8.347656 19.292969 3.867188 18.433594 2.769531 C 16.09375 -0.21875 12.039062 1.195312 11.972656 1.230469 L 11.949219 1.234375 C 11.503906 1.140625 11.007812 1.085938 10.445312 1.078125 C 9.425781 1.0625 8.652344 1.34375 8.066406 1.789062 C 8.066406 1.789062 0.835938 -1.1875 1.175781 5.535156 C 1.246094 6.96875 3.222656 16.359375 5.585938 13.523438 C 6.449219 12.484375 7.28125 11.609375 7.28125 11.609375 C 7.695312 11.882812 8.191406 12.023438 8.710938 11.972656 L 8.75 11.9375 C 8.738281 12.066406 8.742188 12.195312 8.765625 12.34375 C 8.160156 13.023438 8.335938 13.140625 7.121094 13.390625 C 5.890625 13.644531 6.613281 14.097656 7.085938 14.214844 C 7.65625 14.355469 8.980469 14.558594 9.875 13.308594 L 9.839844 13.453125 C 10.078125 13.640625 10.246094 14.691406 10.214844 15.644531 C 10.1875 16.597656 10.171875 17.25 10.359375 17.761719 C 10.546875 18.273438 10.734375 19.421875 12.332031 19.078125 C 13.664062 18.792969 14.355469 18.050781 14.453125 16.8125 C 14.523438 15.933594 14.675781 16.066406 14.6875 15.277344 L 14.808594 14.90625 C 14.953125 13.714844 14.832031 13.328125 15.65625 13.507812 L 15.855469 13.527344 C 16.460938 13.554688 17.253906 13.429688 17.71875 13.210938 C 18.71875 12.746094 19.3125 11.972656 18.324219 12.175781 Z M 18.328125 12.175781 "/>
<path style=" stroke:none;fill-rule:nonzero;fill:rgb(100%,100%,100%);fill-opacity:1;" d="M 8.492188 6.175781 C 8.289062 6.148438 8.105469 6.175781 8.011719 6.246094 C 7.957031 6.285156 7.941406 6.328125 7.9375 6.363281 C 7.925781 6.445312 7.984375 6.539062 8.019531 6.585938 C 8.121094 6.722656 8.273438 6.8125 8.417969 6.835938 C 8.441406 6.835938 8.460938 6.839844 8.484375 6.839844 C 8.730469 6.839844 8.953125 6.648438 8.972656 6.503906 C 8.996094 6.328125 8.738281 6.210938 8.492188 6.175781 M 15.214844 6.183594 C 15.199219 6.042969 14.949219 6.003906 14.714844 6.035156 C 14.480469 6.070312 14.253906 6.175781 14.273438 6.3125 C 14.289062 6.421875 14.484375 6.605469 14.714844 6.605469 C 14.734375 6.605469 14.753906 6.605469 14.773438 6.601562 C 14.929688 6.582031 15.042969 6.484375 15.097656 6.425781 C 15.179688 6.339844 15.226562 6.242188 15.214844 6.183594 "/>
<path style=" stroke:none;fill-rule:nonzero;fill:rgb(100%,100%,100%);fill-opacity:1;" d="M 19.074219 12.125 C 18.988281 11.863281 18.714844 11.78125 18.253906 11.875 C 16.890625 12.15625 16.402344 11.960938 16.242188 11.84375 C 17.300781 10.226562 18.171875 8.277344 18.644531 6.453125 C 18.867188 5.589844 18.988281 4.789062 19 4.136719 C 19.011719 3.417969 18.890625 2.894531 18.636719 2.570312 C 17.621094 1.273438 16.132812 0.578125 14.328125 0.558594 C 13.089844 0.542969 12.039062 0.863281 11.835938 0.953125 C 11.410156 0.84375 10.941406 0.78125 10.4375 0.769531 C 9.503906 0.757812 8.699219 0.980469 8.035156 1.433594 C 7.746094 1.324219 6.996094 1.070312 6.082031 0.921875 C 4.5 0.667969 3.246094 0.859375 2.347656 1.496094 C 1.277344 2.253906 0.785156 3.609375 0.878906 5.523438 C 0.910156 6.167969 1.277344 8.148438 1.859375 10.046875 C 2.621094 12.542969 3.449219 13.957031 4.320312 14.246094 C 4.421875 14.28125 4.539062 14.304688 4.667969 14.304688 C 4.988281 14.304688 5.378906 14.160156 5.785156 13.671875 C 6.277344 13.078125 6.789062 12.5 7.316406 11.9375 C 7.660156 12.121094 8.039062 12.222656 8.421875 12.234375 C 8.421875 12.242188 8.425781 12.253906 8.425781 12.265625 C 8.359375 12.34375 8.292969 12.421875 8.230469 12.503906 C 7.964844 12.84375 7.910156 12.914062 7.050781 13.089844 C 6.804688 13.140625 6.15625 13.273438 6.148438 13.730469 C 6.136719 14.226562 6.914062 14.433594 7.003906 14.457031 C 7.3125 14.535156 7.609375 14.574219 7.890625 14.574219 C 8.582031 14.574219 9.1875 14.347656 9.671875 13.90625 C 9.660156 15.679688 9.730469 17.425781 9.945312 17.957031 C 10.121094 18.390625 10.542969 19.457031 11.890625 19.457031 C 12.085938 19.457031 12.304688 19.433594 12.542969 19.382812 C 13.945312 19.082031 14.554688 18.460938 14.789062 17.09375 C 14.917969 16.363281 15.132812 14.617188 15.234375 13.683594 C 15.449219 13.75 15.726562 13.78125 16.027344 13.78125 C 16.648438 13.78125 17.367188 13.648438 17.820312 13.4375 C 18.328125 13.203125 19.242188 12.625 19.074219 12.125 M 15.734375 5.800781 C 15.730469 6.074219 15.691406 6.324219 15.652344 6.585938 C 15.609375 6.871094 15.5625 7.160156 15.550781 7.515625 C 15.539062 7.859375 15.582031 8.214844 15.625 8.5625 C 15.710938 9.261719 15.796875 9.980469 15.460938 10.6875 C 15.40625 10.589844 15.355469 10.488281 15.3125 10.382812 C 15.273438 10.285156 15.183594 10.121094 15.058594 9.898438 C 14.574219 9.03125 13.4375 6.996094 14.019531 6.164062 C 14.191406 5.917969 14.632812 5.660156 15.734375 5.800781 M 14.398438 1.117188 C 16.015625 1.152344 17.292969 1.757812 18.199219 2.914062 C 18.890625 3.800781 18.128906 7.839844 15.914062 11.320312 C 15.890625 11.292969 15.871094 11.265625 15.847656 11.238281 L 15.820312 11.203125 C 16.390625 10.257812 16.28125 9.324219 16.179688 8.496094 C 16.140625 8.15625 16.101562 7.832031 16.109375 7.53125 C 16.121094 7.210938 16.164062 6.9375 16.203125 6.671875 C 16.253906 6.347656 16.304688 6.007812 16.289062 5.609375 C 16.300781 5.566406 16.304688 5.519531 16.300781 5.460938 C 16.265625 5.078125 15.828125 3.933594 14.9375 2.898438 C 14.453125 2.332031 13.742188 1.699219 12.773438 1.269531 C 13.191406 1.183594 13.761719 1.105469 14.398438 1.117188 M 5.355469 13.316406 C 4.90625 13.855469 4.597656 13.75 4.496094 13.71875 C 3.835938 13.496094 3.066406 12.097656 2.390625 9.882812 C 1.804688 7.964844 1.464844 6.035156 1.4375 5.496094 C 1.351562 3.785156 1.765625 2.59375 2.667969 1.953125 C 4.140625 0.910156 6.554688 1.53125 7.527344 1.847656 C 7.511719 1.863281 7.5 1.875 7.484375 1.890625 C 5.890625 3.5 5.929688 6.25 5.933594 6.417969 C 5.933594 6.480469 5.9375 6.574219 5.945312 6.699219 C 5.972656 7.164062 6.023438 8.023438 5.886719 9 C 5.761719 9.902344 6.039062 10.789062 6.652344 11.429688 C 6.71875 11.496094 6.78125 11.558594 6.851562 11.617188 C 6.578125 11.910156 5.984375 12.558594 5.355469 13.316406 M 7.058594 11.042969 C 6.5625 10.527344 6.339844 9.8125 6.441406 9.074219 C 6.585938 8.046875 6.53125 7.148438 6.503906 6.667969 C 6.5 6.601562 6.496094 6.539062 6.492188 6.492188 C 6.726562 6.289062 7.804688 5.710938 8.574219 5.886719 C 8.925781 5.964844 9.140625 6.207031 9.230469 6.617188 C 9.6875 8.746094 9.289062 9.632812 8.96875 10.347656 C 8.902344 10.492188 8.839844 10.632812 8.785156 10.773438 L 8.746094 10.886719 C 8.640625 11.167969 8.542969 11.429688 8.484375 11.675781 C 7.957031 11.675781 7.445312 11.449219 7.058594 11.042969 Z M 7.136719 13.914062 C 6.984375 13.878906 6.847656 13.8125 6.765625 13.753906 C 6.832031 13.722656 6.953125 13.679688 7.160156 13.636719 C 8.171875 13.429688 8.328125 13.28125 8.667969 12.851562 C 8.746094 12.75 8.835938 12.636719 8.957031 12.5 C 9.140625 12.296875 9.226562 12.332031 9.375 12.394531 C 9.5 12.445312 9.617188 12.597656 9.667969 12.769531 C 9.691406 12.847656 9.714844 13 9.632812 13.117188 C 8.921875 14.113281 7.882812 14.101562 7.136719 13.914062 M 12.425781 18.835938 C 11.191406 19.101562 10.75 18.46875 10.464844 17.75 C 10.277344 17.285156 10.1875 15.183594 10.25 12.867188 C 10.25 12.835938 10.246094 12.804688 10.238281 12.777344 C 10.230469 12.722656 10.21875 12.667969 10.203125 12.613281 C 10.109375 12.277344 9.871094 11.996094 9.589844 11.878906 C 9.476562 11.832031 9.273438 11.746094 9.023438 11.808594 C 9.078125 11.59375 9.167969 11.347656 9.269531 11.082031 L 9.308594 10.96875 C 9.355469 10.84375 9.414062 10.714844 9.476562 10.574219 C 9.8125 9.828125 10.273438 8.808594 9.773438 6.5 C 9.585938 5.632812 8.960938 5.210938 8.015625 5.308594 C 7.449219 5.367188 6.929688 5.597656 6.671875 5.730469 C 6.613281 5.757812 6.5625 5.785156 6.515625 5.808594 C 6.589844 4.9375 6.863281 3.3125 7.882812 2.28125 C 8.527344 1.632812 9.382812 1.3125 10.425781 1.328125 C 12.484375 1.363281 13.800781 2.417969 14.546875 3.296875 C 15.1875 4.054688 15.535156 4.820312 15.671875 5.230469 C 14.628906 5.125 13.921875 5.328125 13.5625 5.84375 C 12.78125 6.960938 13.988281 9.128906 14.570312 10.171875 C 14.675781 10.363281 14.769531 10.527344 14.796875 10.597656 C 14.988281 11.054688 15.234375 11.363281 15.410156 11.585938 C 15.464844 11.65625 15.519531 11.722656 15.558594 11.777344 C 15.246094 11.871094 14.675781 12.082031 14.730469 13.132812 C 14.6875 13.660156 14.390625 16.125 14.242188 17 C 14.042969 18.152344 13.617188 18.582031 12.425781 18.835938 Z M 17.585938 12.933594 C 17.261719 13.082031 16.722656 13.195312 16.210938 13.21875 C 15.640625 13.246094 15.355469 13.15625 15.285156 13.097656 C 15.253906 12.445312 15.496094 12.375 15.757812 12.304688 C 15.796875 12.292969 15.835938 12.28125 15.875 12.269531 C 15.898438 12.289062 15.925781 12.304688 15.953125 12.324219 C 16.40625 12.625 17.21875 12.65625 18.367188 12.421875 L 18.378906 12.417969 C 18.226562 12.5625 17.960938 12.757812 17.585938 12.933594 "/>
</g>
</svg>
