<?xml version="1.0" encoding="UTF-8"?>
<svg xmlns="http://www.w3.org/2000/svg" xmlns:xlink="http://www.w3.org/1999/xlink" width="24px" height="24px" viewBox="0 0 24 24" version="1.1">
<defs>
<linearGradient id="linear0" gradientUnits="userSpaceOnUse" x1="12.481" y1="2" x2="12.481" y2="22.740999" gradientTransform="matrix(0.75,0,0,0.75,0,0)">
<stop offset="0" style="stop-color:rgb(19.607843%,49.411765%,74.117647%);stop-opacity:1;"/>
<stop offset="1" style="stop-color:rgb(8.235294%,39.607843%,65.490196%);stop-opacity:1;"/>
</linearGradient>
<linearGradient id="linear1" gradientUnits="userSpaceOnUse" x1="19.518999" y1="9.259" x2="19.518999" y2="30" gradientTransform="matrix(0.75,0,0,0.75,0,0)">
<stop offset="0" style="stop-color:rgb(100%,85.490196%,29.411765%);stop-opacity:1;"/>
<stop offset="1" style="stop-color:rgb(97.647059%,77.647059%,0%);stop-opacity:1;"/>
</linearGradient>
</defs>
<g id="surface1">
<path style=" stroke:none;fill-rule:evenodd;fill:url(#linear0);" d="M 9.761719 1.5 C 8.113281 1.5 6.777344 2.792969 6.777344 4.390625 L 6.777344 6.390625 L 11.941406 6.390625 L 11.941406 6.945312 L 4.484375 6.945312 C 2.835938 6.945312 1.5 8.238281 1.5 9.832031 L 1.5 14.167969 C 1.5 15.761719 2.835938 17.054688 4.484375 17.054688 L 6.203125 17.054688 L 6.203125 14.609375 C 6.203125 13.015625 7.539062 11.722656 9.1875 11.722656 L 14.695312 11.722656 C 16.089844 11.722656 17.222656 10.628906 17.222656 9.277344 L 17.222656 4.390625 C 17.222656 2.792969 15.886719 1.5 14.238281 1.5 Z M 9.074219 5.054688 C 9.644531 5.054688 10.105469 4.609375 10.105469 4.054688 C 10.105469 3.503906 9.644531 3.054688 9.074219 3.054688 C 8.503906 3.054688 8.039062 3.503906 8.039062 4.054688 C 8.039062 4.609375 8.503906 5.054688 9.074219 5.054688 "/>
<path style=" stroke:none;fill-rule:evenodd;fill:url(#linear1);" d="M 14.238281 22.5 C 15.886719 22.5 17.222656 21.207031 17.222656 19.609375 L 17.222656 17.613281 L 12.058594 17.613281 L 12.058594 17.054688 L 19.515625 17.054688 C 21.164062 17.054688 22.5 15.761719 22.5 14.167969 L 22.5 9.832031 C 22.5 8.238281 21.164062 6.945312 19.515625 6.945312 L 17.796875 6.945312 L 17.796875 9.386719 C 17.796875 10.984375 16.457031 12.277344 14.8125 12.277344 L 9.304688 12.277344 C 7.910156 12.277344 6.777344 13.371094 6.777344 14.722656 L 6.777344 19.609375 C 6.777344 21.207031 8.113281 22.5 9.761719 22.5 Z M 14.925781 18.945312 C 14.355469 18.945312 13.894531 19.390625 13.894531 19.945312 C 13.894531 20.496094 14.355469 20.945312 14.925781 20.945312 C 15.496094 20.945312 15.960938 20.496094 15.960938 19.945312 C 15.960938 19.390625 15.496094 18.945312 14.925781 18.945312 "/>
</g>
</svg>
