<svg xmlns="http://www.w3.org/2000/svg" xmlns:xlink="http://www.w3.org/1999/xlink" width="18" height="18" version="1.1" viewBox="0 0 18 18"><g id="surface1"><path style="stroke:none;fill-rule:evenodd;fill:#70ad51;fill-opacity:1" d="M 3.074219 15.746094 C 3.398438 16.007812 3.875 15.960938 4.144531 15.640625 C 4.410156 15.320312 4.375 14.84375 4.058594 14.570312 C 3.746094 14.296875 3.269531 14.320312 2.988281 14.628906 C 2.707031 14.9375 2.722656 15.414062 3.027344 15.703125 L 2.875 15.570312 C 1.109375 13.929688 0 11.585938 0 8.988281 C 0 4.03125 4.03125 0 8.988281 0 C 11.507812 0 13.785156 1.042969 15.421875 2.71875 C 15.804688 2.195312 16.125 1.625 16.378906 1.023438 C 17.523438 4.464844 18.195312 7.359375 17.949219 9.636719 C 17.617188 14.289062 13.726562 17.976562 8.988281 17.976562 C 6.871094 17.980469 4.824219 17.230469 3.207031 15.863281 Z M 16.339844 12.945312 C 18.59375 9.941406 17.335938 5.089844 16.289062 1.984375 C 15.359375 3.929688 13.0625 5.414062 11.082031 5.882812 C 9.222656 6.328125 7.578125 5.964844 5.859375 6.625 C 1.9375 8.132812 2 12.808594 4.160156 13.859375 C 4.160156 13.859375 4.289062 13.929688 4.289062 13.925781 C 4.289062 13.925781 7.460938 13.296875 9.21875 12.648438 C 11.78125 11.699219 14.597656 9.367188 15.523438 6.652344 C 15.03125 9.472656 12.609375 12.1875 10.175781 13.433594 C 8.882812 14.101562 7.875 14.246094 5.746094 14.984375 C 5.484375 15.074219 5.277344 15.160156 5.277344 15.160156 C 5.820312 15.070312 6.355469 15.042969 6.355469 15.042969 C 9.390625 14.898438 14.125 15.894531 16.339844 12.945312 Z M 16.339844 12.945312"/></g></svg>