<svg xmlns="http://www.w3.org/2000/svg" xmlns:xlink="http://www.w3.org/1999/xlink" width="20" height="20" version="1.1" viewBox="0 0 20 20"><g id="surface1"><path style="stroke:none;fill-rule:nonzero;fill:#007acc;fill-opacity:1" d="M 0 10 L 0 20 L 20 20 L 20 0 L 0 0 Z M 0 10"/><path style="stroke:none;fill-rule:nonzero;fill:#fff;fill-opacity:1" d="M 4.421875 10.066406 L 4.417969 10.886719 L 7.019531 10.886719 L 7.019531 18.28125 L 8.859375 18.28125 L 8.859375 10.886719 L 11.464844 10.886719 L 11.464844 10.082031 C 11.464844 9.636719 11.453125 9.265625 11.441406 9.257812 C 11.433594 9.246094 9.847656 9.238281 7.925781 9.242188 L 4.433594 9.25 Z M 16.136719 9.226562 C 16.644531 9.355469 17.035156 9.578125 17.390625 9.949219 C 17.574219 10.144531 17.847656 10.503906 17.867188 10.589844 C 17.875 10.613281 17.003906 11.199219 16.476562 11.527344 C 16.457031 11.539062 16.382812 11.457031 16.296875 11.328125 C 16.039062 10.953125 15.769531 10.792969 15.355469 10.765625 C 14.75 10.722656 14.359375 11.039062 14.363281 11.570312 C 14.363281 11.726562 14.386719 11.816406 14.449219 11.945312 C 14.582031 12.222656 14.832031 12.386719 15.609375 12.722656 C 17.039062 13.339844 17.652344 13.746094 18.035156 14.324219 C 18.457031 14.96875 18.554688 15.996094 18.265625 16.761719 C 17.949219 17.59375 17.160156 18.15625 16.050781 18.34375 C 15.710938 18.40625 14.898438 18.394531 14.527344 18.328125 C 13.726562 18.1875 12.964844 17.789062 12.492188 17.269531 C 12.308594 17.066406 11.949219 16.535156 11.972656 16.496094 C 11.984375 16.484375 12.066406 16.433594 12.15625 16.378906 C 12.246094 16.328125 12.582031 16.136719 12.898438 15.949219 L 13.472656 15.617188 L 13.59375 15.796875 C 13.761719 16.050781 14.132812 16.40625 14.355469 16.523438 C 14.992188 16.859375 15.867188 16.8125 16.300781 16.425781 C 16.484375 16.253906 16.558594 16.082031 16.558594 15.824219 C 16.558594 15.59375 16.53125 15.492188 16.410156 15.316406 C 16.253906 15.09375 15.9375 14.90625 15.035156 14.515625 C 14.003906 14.070312 13.558594 13.796875 13.152344 13.355469 C 12.917969 13.101562 12.695312 12.695312 12.605469 12.355469 C 12.527344 12.074219 12.507812 11.367188 12.570312 11.082031 C 12.78125 10.085938 13.535156 9.390625 14.621094 9.183594 C 14.972656 9.117188 15.792969 9.140625 16.136719 9.226562"/></g></svg>